<svg fill="none" height="104" viewBox="0 0 350 104" width="350" xmlns="http://www.w3.org/2000/svg"><g fill="#000"><path d="m297.271 71v-27.9492h6.54v4.8252h.158c.422-1.6875 1.186-3.0059 2.294-3.9551 1.125-.9668 2.496-1.4502 4.113-1.4502.404 0 .791.0264 1.16.0791s.677.1143.923.1846v5.9326c-.264-.1055-.642-.1934-1.134-.2637-.474-.0703-.993-.1054-1.555-.1054-1.231 0-2.294.2548-3.191.7646-.896.4922-1.582 1.2217-2.057 2.1885-.474.9668-.711 2.1445-.711 3.5332v16.2158z"/><path d="m280.449 71.5537c-2.795 0-5.203-.5889-7.224-1.7666-2.004-1.1777-3.542-2.8476-4.615-5.0098-1.072-2.1621-1.608-4.7197-1.608-7.6728v-.0264c0-2.9355.536-5.4931 1.608-7.6728 1.09-2.1973 2.611-3.9024 4.562-5.1153 1.969-1.2129 4.289-1.8193 6.961-1.8193 2.654 0 4.948.5889 6.882 1.7666 1.951 1.1602 3.445 2.7949 4.482 4.9043 1.055 2.1094 1.582 4.5703 1.582 7.3828v2.1094h-22.834v-4.377h19.696l-3.164 4.087v-2.5313c0-1.8281-.281-3.3486-.843-4.5615-.563-1.2129-1.336-2.1182-2.321-2.7158-.984-.6153-2.118-.9229-3.401-.9229-1.301 0-2.461.3164-3.481.9492-1.002.6153-1.793 1.5381-2.373 2.7686-.562 1.2304-.843 2.7246-.843 4.4824v2.5313c0 1.705.281 3.164.843 4.3769.58 1.1953 1.398 2.1182 2.453 2.7686 1.054.6328 2.311.9492 3.77.9492 1.09 0 2.048-.167 2.874-.501.826-.3516 1.503-.7998 2.03-1.3447.545-.5449.923-1.1338 1.134-1.7666l.053-.1846h6.117l-.053.29c-.228 1.0723-.65 2.127-1.265 3.1641-.616 1.0195-1.442 1.9424-2.479 2.7686-1.037.8261-2.267 1.4853-3.691 1.9775-1.424.4746-3.041.7119-4.852.7119z"/><path d="m247.227 71.5537c-2.356 0-4.404-.5801-6.144-1.7402-1.723-1.1778-3.059-2.8565-4.008-5.0362-.931-2.1796-1.397-4.7636-1.397-7.7519v-.0264c0-3.0058.474-5.5898 1.424-7.7519.949-2.1797 2.285-3.8496 4.007-5.0098 1.723-1.1777 3.753-1.7666 6.091-1.7666 1.336 0 2.558.2197 3.665.6592 1.125.4219 2.118 1.0371 2.98 1.8457.861.791 1.555 1.749 2.083 2.874h.158v-14.8975h6.539v38.0479h-6.539v-4.7461h-.158c-.51 1.1074-1.196 2.0566-2.057 2.8477-.844.7734-1.828 1.3798-2.953 1.8193-1.107.4219-2.338.6328-3.691.6328zm1.977-5.5107c1.354 0 2.549-.3692 3.586-1.1075 1.037-.7382 1.846-1.7841 2.426-3.1376.58-1.3536.87-2.9444.87-4.7725v-.0264c0-1.8281-.299-3.4101-.897-4.7461-.58-1.3535-1.388-2.3994-2.425-3.1377-1.02-.7382-2.206-1.1074-3.56-1.1074-1.406 0-2.628.3692-3.665 1.1074-1.019.7207-1.81 1.7491-2.373 3.085-.545 1.3359-.817 2.9355-.817 4.7988v.0264c0 1.8457.272 3.4453.817 4.7988.563 1.3535 1.354 2.3994 2.373 3.1377 1.037.7207 2.259 1.0811 3.665 1.0811z"/><path d="m224.683 71v-27.9492h6.565v27.9492zm3.269-31.957c-1.019 0-1.881-.3516-2.584-1.0547s-1.055-1.5469-1.055-2.5313c0-1.0019.352-1.8457 1.055-2.5312.703-.7031 1.565-1.0547 2.584-1.0547 1.037 0 1.907.3516 2.61 1.0547.704.6855 1.055 1.5293 1.055 2.5312 0 .9844-.351 1.8282-1.055 2.5313-.703.7031-1.573 1.0547-2.61 1.0547z"/><path d="m196.786 71v-38.0479h6.539v38.0479zm17.613 0-9.36-12.709 4.192-4.8515 12.736 17.5605zm-12.023-8.7012v-7.6465h1.107l10.442-11.6015h7.567l-13.025 14.1592h-1.213z"/><path d="m180.57 71.5537c-2.443 0-4.535-.3603-6.275-1.081-1.723-.7207-3.076-1.7315-4.061-3.0323-.966-1.3183-1.555-2.8388-1.766-4.5615l-.027-.2373h6.46l.053.2373c.246 1.2129.826 2.1533 1.74 2.8213.932.668 2.233 1.0019 3.903 1.0019 1.072 0 1.986-.1318 2.742-.3955.756-.2636 1.336-.6504 1.74-1.1601.422-.5098.633-1.1074.633-1.793v-.0264c0-.8261-.281-1.4941-.844-2.0039-.562-.5273-1.573-.958-3.032-1.292l-4.641-1.0283c-1.775-.4043-3.26-.958-4.456-1.6611-1.195-.7031-2.092-1.5732-2.689-2.6104-.598-1.0546-.897-2.2763-.897-3.665v-.0264c0-1.705.466-3.1992 1.398-4.4824.931-1.2832 2.241-2.2851 3.928-3.0058 1.688-.7207 3.648-1.0811 5.88-1.0811 2.321 0 4.307.3867 5.959 1.1602 1.653.7734 2.927 1.8105 3.824 3.1113.914 1.3008 1.406 2.7598 1.476 4.3769l.027.2901h-6.118l-.026-.211c-.141-1.125-.65-2.0478-1.529-2.7685-.879-.7383-2.083-1.1074-3.613-1.1074-.966 0-1.81.1406-2.531.4218-.703.2813-1.248.6768-1.635 1.1866-.369.5097-.553 1.1074-.553 1.7929v.0264c0 .5273.131 1.002.395 1.4238.264.4219.686.791 1.266 1.1074.58.2989 1.353.5626 2.32.7911l4.641 1.0283c2.9.6504 4.966 1.582 6.196 2.7949 1.23 1.1953 1.846 2.8037 1.846 4.8252v.0264c0 1.7578-.501 3.3047-1.503 4.6406-1.002 1.3184-2.391 2.3467-4.166 3.085-1.758.7207-3.78 1.081-6.065 1.081z"/><path d="m152.832 71.5537c-2.795 0-5.203-.5889-7.225-1.7666-2.003-1.1777-3.542-2.8476-4.614-5.0098-1.072-2.1621-1.608-4.7197-1.608-7.6728v-.0264c0-2.9355.536-5.4931 1.608-7.6728 1.09-2.1973 2.611-3.9024 4.562-5.1153 1.968-1.2129 4.289-1.8193 6.961-1.8193 2.654 0 4.948.5889 6.881 1.7666 1.952 1.1602 3.446 2.7949 4.483 4.9043 1.055 2.1094 1.582 4.5703 1.582 7.3828v2.1094h-22.834v-4.377h19.696l-3.164 4.087v-2.5313c0-1.8281-.281-3.3486-.844-4.5615-.562-1.2129-1.336-2.1182-2.32-2.7158-.984-.6153-2.118-.9229-3.401-.9229-1.301 0-2.461.3164-3.481.9492-1.002.6153-1.793 1.5381-2.373 2.7686-.562 1.2304-.844 2.7246-.844 4.4824v2.5313c0 1.705.282 3.164.844 4.3769.58 1.1953 1.398 2.1182 2.452 2.7686 1.055.6328 2.312.9492 3.771.9492 1.09 0 2.048-.167 2.874-.501.826-.3516 1.503-.7998 2.03-1.3447.545-.5449.923-1.1338 1.134-1.7666l.053-.1846h6.117l-.053.29c-.228 1.0723-.65 2.127-1.265 3.1641-.616 1.0195-1.442 1.9424-2.479 2.7686-1.037.8261-2.268 1.4853-3.691 1.9775-1.424.4746-3.041.7119-4.852.7119z"/><path d="m110.75 71v-5.2734h10.995c2.496 0 4.395-.501 5.695-1.503 1.319-1.0019 1.978-2.4609 1.978-4.3769v-.0528c0-1.2832-.308-2.3554-.923-3.2168-.598-.8789-1.494-1.5292-2.689-1.9511-1.196-.4395-2.681-.6592-4.456-.6592h-10.6v-4.9307h9.519c2.46 0 4.333-.4834 5.616-1.4502s1.925-2.3554 1.925-4.166v-.0527c0-1.6348-.563-2.9004-1.688-3.7969-1.107-.8965-2.672-1.3447-4.693-1.3447h-10.679v-5.2735h12.393c2.32 0 4.324.3956 6.011 1.1866 1.705.7734 3.024 1.872 3.955 3.2959.95 1.4238 1.424 3.1025 1.424 5.0361v.0527c0 1.3711-.316 2.6543-.949 3.8496-.615 1.1778-1.468 2.1709-2.558 2.9795-1.089.7911-2.311 1.2832-3.665 1.4766v.1318c1.776.1582 3.34.6504 4.694 1.4766 1.353.8262 2.408 1.9072 3.164 3.2432.756 1.3183 1.134 2.8213 1.134 4.5088v.0527c0 2.2148-.528 4.1308-1.582 5.748-1.055 1.5996-2.558 2.8389-4.509 3.7178-1.934.8613-4.254 1.292-6.961 1.292zm-3.401 0v-38.0479h6.802v38.0479z"/></g><path d="m70.5 48.5-24.5 22.5 12.5-18h-17.5l21.5-22-9.5 17.5z" stroke="#ffd300" stroke-miterlimit="16" stroke-width="3"/><path d="m37 55 29-29-10 21h18.5l-35 31.5 15.5-23.5z" fill="#ffd300" stroke="#ff9000" stroke-miterlimit="16" stroke-width="3"/></svg>