<svg width="350" height="104" viewBox="0 0 350 104" fill="none" xmlns="http://www.w3.org/2000/svg">
<path d="M109.75 71V65.7266H120.745C123.241 65.7266 125.14 65.2256 126.44 64.2236C127.759 63.2217 128.418 61.7627 128.418 59.8467V59.7939C128.418 58.5107 128.11 57.4385 127.495 56.5771C126.897 55.6982 126.001 55.0479 124.806 54.626C123.61 54.1865 122.125 53.9668 120.35 53.9668H109.75V49.0361H119.269C121.729 49.0361 123.602 48.5527 124.885 47.5859C126.168 46.6191 126.81 45.2305 126.81 43.4199V43.3672C126.81 41.7324 126.247 40.4668 125.122 39.5703C124.015 38.6738 122.45 38.2256 120.429 38.2256H109.75V32.9521H122.143C124.463 32.9521 126.467 33.3477 128.154 34.1387C129.859 34.9121 131.178 36.0107 132.109 37.4346C133.059 38.8584 133.533 40.5371 133.533 42.4707V42.5234C133.533 43.8945 133.217 45.1777 132.584 46.373C131.969 47.5508 131.116 48.5439 130.026 49.3525C128.937 50.1436 127.715 50.6357 126.361 50.8291V50.9609C128.137 51.1191 129.701 51.6113 131.055 52.4375C132.408 53.2637 133.463 54.3447 134.219 55.6807C134.975 56.999 135.353 58.502 135.353 60.1895V60.2422C135.353 62.457 134.825 64.373 133.771 65.9902C132.716 67.5898 131.213 68.8291 129.262 69.708C127.328 70.5693 125.008 71 122.301 71H109.75ZM106.349 71V32.9521H113.151V71H106.349ZM151.832 71.5537C149.037 71.5537 146.629 70.9648 144.607 69.7871C142.604 68.6094 141.065 66.9395 139.993 64.7773C138.921 62.6152 138.385 60.0576 138.385 57.1045V57.0781C138.385 54.1426 138.921 51.585 139.993 49.4053C141.083 47.208 142.604 45.5029 144.555 44.29C146.523 43.0771 148.844 42.4707 151.516 42.4707C154.17 42.4707 156.464 43.0596 158.397 44.2373C160.349 45.3975 161.843 47.0322 162.88 49.1416C163.935 51.251 164.462 53.7119 164.462 56.5244V58.6338H141.628V54.2568H161.324L158.16 58.3438V55.8125C158.16 53.9844 157.879 52.4639 157.316 51.251C156.754 50.0381 155.98 49.1328 154.996 48.5352C154.012 47.9199 152.878 47.6123 151.595 47.6123C150.294 47.6123 149.134 47.9287 148.114 48.5615C147.112 49.1768 146.321 50.0996 145.741 51.3301C145.179 52.5605 144.897 54.0547 144.897 55.8125V58.3438C144.897 60.0488 145.179 61.5078 145.741 62.7207C146.321 63.916 147.139 64.8389 148.193 65.4893C149.248 66.1221 150.505 66.4385 151.964 66.4385C153.054 66.4385 154.012 66.2715 154.838 65.9375C155.664 65.5859 156.341 65.1377 156.868 64.5928C157.413 64.0479 157.791 63.459 158.002 62.8262L158.055 62.6416H164.172L164.119 62.9316C163.891 64.0039 163.469 65.0586 162.854 66.0957C162.238 67.1152 161.412 68.0381 160.375 68.8643C159.338 69.6904 158.107 70.3496 156.684 70.8418C155.26 71.3164 153.643 71.5537 151.832 71.5537ZM179.57 71.5537C177.127 71.5537 175.035 71.1934 173.295 70.4727C171.572 69.752 170.219 68.7412 169.234 67.4404C168.268 66.1221 167.679 64.6016 167.468 62.8789L167.441 62.6416H173.901L173.954 62.8789C174.2 64.0918 174.78 65.0322 175.694 65.7002C176.626 66.3682 177.927 66.7021 179.597 66.7021C180.669 66.7021 181.583 66.5703 182.339 66.3066C183.095 66.043 183.675 65.6562 184.079 65.1465C184.501 64.6367 184.712 64.0391 184.712 63.3535V63.3271C184.712 62.501 184.431 61.833 183.868 61.3232C183.306 60.7959 182.295 60.3652 180.836 60.0312L176.195 59.0029C174.42 58.5986 172.935 58.0449 171.739 57.3418C170.544 56.6387 169.647 55.7686 169.05 54.7314C168.452 53.6768 168.153 52.4551 168.153 51.0664V51.04C168.153 49.335 168.619 47.8408 169.551 46.5576C170.482 45.2744 171.792 44.2725 173.479 43.5518C175.167 42.8311 177.127 42.4707 179.359 42.4707C181.68 42.4707 183.666 42.8574 185.318 43.6309C186.971 44.4043 188.245 45.4414 189.142 46.7422C190.056 48.043 190.548 49.502 190.618 51.1191L190.645 51.4092H184.527L184.501 51.1982C184.36 50.0732 183.851 49.1504 182.972 48.4297C182.093 47.6914 180.889 47.3223 179.359 47.3223C178.393 47.3223 177.549 47.4629 176.828 47.7441C176.125 48.0254 175.58 48.4209 175.193 48.9307C174.824 49.4404 174.64 50.0381 174.64 50.7236V50.75C174.64 51.2773 174.771 51.752 175.035 52.1738C175.299 52.5957 175.721 52.9648 176.301 53.2812C176.881 53.5801 177.654 53.8438 178.621 54.0723L183.262 55.1006C186.162 55.751 188.228 56.6826 189.458 57.8955C190.688 59.0908 191.304 60.6992 191.304 62.7207V62.7471C191.304 64.5049 190.803 66.0518 189.801 67.3877C188.799 68.7061 187.41 69.7344 185.635 70.4727C183.877 71.1934 181.855 71.5537 179.57 71.5537ZM195.786 71V32.9521H202.325V71H195.786ZM213.399 71L204.039 58.291L208.231 53.4395L220.967 71H213.399ZM201.376 62.2988V54.6523H202.483L212.925 43.0508H220.492L207.467 57.21H206.254L201.376 62.2988ZM223.683 71V43.0508H230.248V71H223.683ZM226.952 39.043C225.933 39.043 225.071 38.6914 224.368 37.9883C223.665 37.2852 223.313 36.4414 223.313 35.457C223.313 34.4551 223.665 33.6113 224.368 32.9258C225.071 32.2227 225.933 31.8711 226.952 31.8711C227.989 31.8711 228.859 32.2227 229.562 32.9258C230.266 33.6113 230.617 34.4551 230.617 35.457C230.617 36.4414 230.266 37.2852 229.562 37.9883C228.859 38.6914 227.989 39.043 226.952 39.043ZM246.227 71.5537C243.871 71.5537 241.823 70.9736 240.083 69.8135C238.36 68.6357 237.024 66.957 236.075 64.7773C235.144 62.5977 234.678 60.0137 234.678 57.0254V56.999C234.678 53.9932 235.152 51.4092 236.102 49.2471C237.051 47.0674 238.387 45.3975 240.109 44.2373C241.832 43.0596 243.862 42.4707 246.2 42.4707C247.536 42.4707 248.758 42.6904 249.865 43.1299C250.99 43.5518 251.983 44.167 252.845 44.9756C253.706 45.7666 254.4 46.7246 254.928 47.8496H255.086V32.9521H261.625V71H255.086V66.2539H254.928C254.418 67.3613 253.732 68.3105 252.871 69.1016C252.027 69.875 251.043 70.4814 249.918 70.9209C248.811 71.3428 247.58 71.5537 246.227 71.5537ZM248.204 66.043C249.558 66.043 250.753 65.6738 251.79 64.9355C252.827 64.1973 253.636 63.1514 254.216 61.7979C254.796 60.4443 255.086 58.8535 255.086 57.0254V56.999C255.086 55.1709 254.787 53.5889 254.189 52.2529C253.609 50.8994 252.801 49.8535 251.764 49.1152C250.744 48.377 249.558 48.0078 248.204 48.0078C246.798 48.0078 245.576 48.377 244.539 49.1152C243.52 49.8359 242.729 50.8643 242.166 52.2002C241.621 53.5361 241.349 55.1357 241.349 56.999V57.0254C241.349 58.8711 241.621 60.4707 242.166 61.8242C242.729 63.1777 243.52 64.2236 244.539 64.9619C245.576 65.6826 246.798 66.043 248.204 66.043ZM279.449 71.5537C276.654 71.5537 274.246 70.9648 272.225 69.7871C270.221 68.6094 268.683 66.9395 267.61 64.7773C266.538 62.6152 266.002 60.0576 266.002 57.1045V57.0781C266.002 54.1426 266.538 51.585 267.61 49.4053C268.7 47.208 270.221 45.5029 272.172 44.29C274.141 43.0771 276.461 42.4707 279.133 42.4707C281.787 42.4707 284.081 43.0596 286.015 44.2373C287.966 45.3975 289.46 47.0322 290.497 49.1416C291.552 51.251 292.079 53.7119 292.079 56.5244V58.6338H269.245V54.2568H288.941L285.777 58.3438V55.8125C285.777 53.9844 285.496 52.4639 284.934 51.251C284.371 50.0381 283.598 49.1328 282.613 48.5352C281.629 47.9199 280.495 47.6123 279.212 47.6123C277.911 47.6123 276.751 47.9287 275.731 48.5615C274.729 49.1768 273.938 50.0996 273.358 51.3301C272.796 52.5605 272.515 54.0547 272.515 55.8125V58.3438C272.515 60.0488 272.796 61.5078 273.358 62.7207C273.938 63.916 274.756 64.8389 275.811 65.4893C276.865 66.1221 278.122 66.4385 279.581 66.4385C280.671 66.4385 281.629 66.2715 282.455 65.9375C283.281 65.5859 283.958 65.1377 284.485 64.5928C285.03 64.0479 285.408 63.459 285.619 62.8262L285.672 62.6416H291.789L291.736 62.9316C291.508 64.0039 291.086 65.0586 290.471 66.0957C289.855 67.1152 289.029 68.0381 287.992 68.8643C286.955 69.6904 285.725 70.3496 284.301 70.8418C282.877 71.3164 281.26 71.5537 279.449 71.5537ZM296.271 71V43.0508H302.811V47.876H302.969C303.391 46.1885 304.155 44.8701 305.263 43.9209C306.388 42.9541 307.759 42.4707 309.376 42.4707C309.78 42.4707 310.167 42.4971 310.536 42.5498C310.905 42.6025 311.213 42.6641 311.459 42.7344V48.667C311.195 48.5615 310.817 48.4736 310.325 48.4033C309.851 48.333 309.332 48.2979 308.77 48.2979C307.539 48.2979 306.476 48.5527 305.579 49.0625C304.683 49.5547 303.997 50.2842 303.522 51.251C303.048 52.2178 302.811 53.3955 302.811 54.7842V71H296.271Z" fill="white"/>
<path d="M70.5 48.5L46 71L58.5 53H41L62.5 31L53 48.5H70.5Z" stroke="#FFD300" stroke-width="3" stroke-miterlimit="16"/>
<path d="M37 55L66 26L56 47H74.5L39.5 78.5L55 55H37Z" fill="#FFD300" stroke="#FF9000" stroke-width="3" stroke-miterlimit="16"/>
</svg>
